<svg xmlns="http://www.w3.org/2000/svg" xmlns:xlink="http://www.w3.org/1999/xlink" width="1520" height="500" viewBox="0 0 1520 500">
  <defs>
    <clipPath id="clip-Artboard_32">
      <rect width="1520" height="500"/>
    </clipPath>
  </defs>
  <g id="Artboard_32" data-name="Artboard – 32" clip-path="url(#clip-Artboard_32)">
    <g id="Group_214" data-name="Group 214" transform="translate(65.459 -112.006)">
      <g id="Group_183-2_2_" transform="translate(-13819.5 2774)">
        <g id="Group_148-8_2_" transform="translate(11416.664 1848)">
          <path id="Path_125-2-10_2_" d="M2703.17-4145.07h-50.18a14.548,14.548,0,0,1-12.93-7.87c-5.85-11.28-11.44-22.69-18.08-33.52l-99.49-162.19c-6.38-10.41.19-24.34,12.37-25.26.42-.03.83-.05,1.23-.05h207a130.624,130.624,0,0,1,53.96,10.3,80.07,80.07,0,0,1,35.32,29.43,80.728,80.728,0,0,1,12.43,44.96,79.852,79.852,0,0,1-11.61,43.33,77.844,77.844,0,0,1-31.31,28,1.831,1.831,0,0,0-.82,2.45h0c.04.07.08.15.12.21l46.29,67.44a1.765,1.765,0,0,1-.45,2.46h0a1.819,1.819,0,0,1-1.01.31H2703.17Z" fill="#0080ff"/>
        </g>
        <path id="Subtraction_143-8_2_" d="M14061.4-2351.77h-164.84a59.558,59.558,0,0,1-59.52-59.6,59.574,59.574,0,0,1,36.34-54.81,59.3,59.3,0,0,1,23.18-4.68h164.84a59.558,59.558,0,0,1,59.52,59.6,59.574,59.574,0,0,1-36.34,54.81A59.561,59.561,0,0,1,14061.4-2351.77Zm-164.6-85.06a25.8,25.8,0,0,0-25.8,25.82,25.8,25.8,0,0,0,25.8,25.8h164.84a25.809,25.809,0,0,0,25.81-25.81,25.815,25.815,0,0,0-25.81-25.81H13896.8Z" fill="#fff"/>
        <path id="Intersection_3-8_2_" d="M14030.5-2351.77l-20.51-33.44h51.72a25.809,25.809,0,0,0,25.81-25.81,25.815,25.815,0,0,0-25.81-25.81h-83.38l-20.87-34.02h103.96a59.565,59.565,0,0,1,59.52,59.6,59.574,59.574,0,0,1-36.34,54.81,59.3,59.3,0,0,1-23.18,4.68h-30.92Z" fill="#4ec0ff"/>
      </g>
      <g id="Group_213" data-name="Group 213" transform="translate(-1794 -548)">
        <path id="Path_209" data-name="Path 209" d="M2384.1,869l-36,84h-23.4l-35.88-84h25.68l22.8,54.72L2360.58,869Z" fill="#fff"/>
        <path id="Path_210" data-name="Path 210" d="M2425.74,930.68h-12.96V953h-23.76V869h38.4a47.909,47.909,0,0,1,19.8,3.78,30.554,30.554,0,0,1,13.26,43.2,28.814,28.814,0,0,1-12.18,10.62l18.12,26.4h-25.44Zm11.28-39.72q-3.72-3.24-11.04-3.24h-13.2v24.6h13.2q7.32,0,11.04-3.18t3.72-9.06Q2440.74,894.2,2437.02,890.96Z" fill="#fff"/>
        <path id="Path_211" data-name="Path 211" d="M2534.1,936.68h-35.52l-6.6,16.32h-24.24l37.08-84h23.4l37.2,84H2540.7Zm-6.96-17.52-10.8-26.88-10.8,26.88Z" fill="#fff"/>
        <path id="Path_212" data-name="Path 212" d="M2589.12,949.1a41.727,41.727,0,0,1-16.5-15.54,45.413,45.413,0,0,1,0-45.12,41.726,41.726,0,0,1,16.5-15.54,49.712,49.712,0,0,1,23.7-5.58,50.87,50.87,0,0,1,20.76,4.08,39.944,39.944,0,0,1,15.36,11.76l-15.12,13.68q-8.16-9.84-19.8-9.84a24.436,24.436,0,0,0-12.18,3,20.821,20.821,0,0,0-8.28,8.46,28.214,28.214,0,0,0,0,25.08,20.821,20.821,0,0,0,8.28,8.46,24.437,24.437,0,0,0,12.18,3q11.64,0,19.8-9.84l15.12,13.68a39.942,39.942,0,0,1-15.36,11.76,50.871,50.871,0,0,1-20.76,4.08A49.711,49.711,0,0,1,2589.12,949.1Z" fill="#fff"/>
        <path id="Path_213" data-name="Path 213" d="M2714.34,936.68h-35.52l-6.6,16.32h-24.24l37.08-84h23.4l37.2,84h-24.72Zm-6.96-17.52-10.8-26.88-10.8,26.88Z" fill="#fff"/>
        <path id="Path_214" data-name="Path 214" d="M2752.38,869h39.72a55.6,55.6,0,0,1,24.48,5.16,38.867,38.867,0,0,1,16.56,14.64q5.88,9.48,5.88,22.2t-5.88,22.2a38.866,38.866,0,0,1-16.56,14.64A55.6,55.6,0,0,1,2792.1,953h-39.72Zm38.76,65.04q10.8,0,17.34-6.12t6.54-16.92q0-10.8-6.54-16.92t-17.34-6.12h-15v46.08h15Z" fill="#fff"/>
        <path id="Path_215" data-name="Path 215" d="M2918.94,934.64V953H2851.5V869h65.88v18.36h-42.36v14.16h37.32v17.76h-37.32v15.36h43.92Z" fill="#fff"/>
        <path id="Path_216" data-name="Path 216" d="M3007.98,953l-.24-44.52-21.6,36.24h-10.56l-21.48-35.04V953h-21.96V869h19.56l29.52,48.48,28.8-48.48h19.56l.24,84Z" fill="#fff"/>
        <path id="Path_217" data-name="Path 217" d="M3046.61,869h23.76v84h-23.76Z" fill="#fff"/>
        <path id="Path_218" data-name="Path 218" d="M3105.47,949.1a41.727,41.727,0,0,1-16.5-15.54,45.413,45.413,0,0,1,0-45.12,41.726,41.726,0,0,1,16.5-15.54,49.712,49.712,0,0,1,23.7-5.58,50.87,50.87,0,0,1,20.76,4.08,39.944,39.944,0,0,1,15.36,11.76l-15.12,13.68q-8.16-9.84-19.8-9.84a24.436,24.436,0,0,0-12.18,3,20.821,20.821,0,0,0-8.28,8.46,28.214,28.214,0,0,0,0,25.08,20.821,20.821,0,0,0,8.28,8.46,24.437,24.437,0,0,0,12.18,3q11.64,0,19.8-9.84l15.12,13.68a39.942,39.942,0,0,1-15.36,11.76,50.871,50.871,0,0,1-20.76,4.08A49.712,49.712,0,0,1,3105.47,949.1Z" fill="#fff"/>
      </g>
    </g>
  </g>
</svg>
