<svg xmlns="http://www.w3.org/2000/svg" xmlns:xlink="http://www.w3.org/1999/xlink" width="1520" height="500" viewBox="0 0 1520 500">
  <defs>
    <clipPath id="clip-Artboard_31">
      <rect width="1520" height="500"/>
    </clipPath>
  </defs>
  <g id="Artboard_31" data-name="Artboard – 31" clip-path="url(#clip-Artboard_31)">
    <g id="Group_215" data-name="Group 215" transform="translate(-36.525 -112.005)">
      <g id="Group_182_2_" transform="translate(-9530.855 4401.043)">
        <g id="Group_148-3_2_" transform="translate(10313.02 1954.957)">
          <path id="Path_125-2-4_2_" d="M-379.83-5879.07h-50.18a14.548,14.548,0,0,1-12.93-7.87c-5.85-11.28-11.44-22.69-18.08-33.52l-99.49-162.19c-6.38-10.41.19-24.34,12.37-25.26.42-.03.83-.05,1.23-.05h207a130.624,130.624,0,0,1,53.96,10.3,80.069,80.069,0,0,1,35.32,29.43,80.739,80.739,0,0,1,12.43,44.97,79.682,79.682,0,0,1-11.61,43.33,77.845,77.845,0,0,1-31.31,28,1.831,1.831,0,0,0-.82,2.45h0c.04.07.08.15.12.21l46.29,67.44a1.765,1.765,0,0,1-.45,2.46h0a1.82,1.82,0,0,1-1.01.31H-379.82Z" fill="#0080ff"/>
        </g>
        <path id="Subtraction_143-3_2_" d="M9874.74-3978.81H9709.9a59.558,59.558,0,0,1-59.52-59.6,59.574,59.574,0,0,1,36.34-54.81,59.305,59.305,0,0,1,23.18-4.68h164.84a59.558,59.558,0,0,1,59.52,59.6,59.574,59.574,0,0,1-36.34,54.81A59.332,59.332,0,0,1,9874.74-3978.81Zm-164.55-85.07a25.8,25.8,0,0,0-25.8,25.82,25.8,25.8,0,0,0,25.8,25.8h164.84a25.809,25.809,0,0,0,25.81-25.81,25.815,25.815,0,0,0-25.81-25.81H9710.19Z" fill="#0080ff"/>
        <path id="Intersection_3-3_2_" d="M9843.83-3978.81l-20.51-33.44h51.72a25.809,25.809,0,0,0,25.81-25.81,25.815,25.815,0,0,0-25.81-25.81h-83.39l-20.87-34.02h103.96a59.565,59.565,0,0,1,59.52,59.6,59.574,59.574,0,0,1-36.34,54.81,59.3,59.3,0,0,1-23.18,4.68h-30.91Z" fill="#4ec0ff"/>
      </g>
      <g id="Group_212" data-name="Group 212" transform="translate(38 112)">
        <path id="Path_199" data-name="Path 199" d="M654.1,209l-36,84H594.7l-35.88-84H584.5l22.8,54.72L630.58,209Z" fill="#0080ff"/>
        <path id="Path_200" data-name="Path 200" d="M695.74,270.68H682.78V293H659.02V209h38.4a47.909,47.909,0,0,1,19.8,3.78,30.554,30.554,0,0,1,13.26,43.2A28.814,28.814,0,0,1,718.3,266.6L736.42,293H710.98Zm11.28-39.72q-3.72-3.24-11.04-3.24h-13.2v24.6h13.2q7.32,0,11.04-3.18t3.72-9.06Q710.74,234.2,707.02,230.96Z" fill="#0080ff"/>
        <path id="Path_201" data-name="Path 201" d="M804.1,276.68H768.58L761.98,293H737.74l37.08-84h23.4l37.2,84H810.7Zm-6.96-17.52-10.8-26.88-10.8,26.88Z" fill="#0080ff"/>
        <path id="Path_202" data-name="Path 202" d="M859.12,289.1a41.726,41.726,0,0,1-16.5-15.54,45.413,45.413,0,0,1,0-45.12,41.726,41.726,0,0,1,16.5-15.54,49.712,49.712,0,0,1,23.7-5.58,50.871,50.871,0,0,1,20.76,4.08,39.942,39.942,0,0,1,15.36,11.76l-15.12,13.68q-8.16-9.84-19.8-9.84a24.436,24.436,0,0,0-12.18,3,20.822,20.822,0,0,0-8.28,8.46,28.213,28.213,0,0,0,0,25.08,20.821,20.821,0,0,0,8.28,8.46,24.436,24.436,0,0,0,12.18,3q11.64,0,19.8-9.84l15.12,13.68a39.943,39.943,0,0,1-15.36,11.76,50.87,50.87,0,0,1-20.76,4.08A49.712,49.712,0,0,1,859.12,289.1Z" fill="#0080ff"/>
        <path id="Path_203" data-name="Path 203" d="M984.34,276.68H948.82L942.22,293H917.98l37.08-84h23.4l37.2,84H990.94Zm-6.96-17.52-10.8-26.88-10.8,26.88Z" fill="#0080ff"/>
        <path id="Path_204" data-name="Path 204" d="M1022.38,209h39.72a55.6,55.6,0,0,1,24.48,5.16,38.867,38.867,0,0,1,16.56,14.64q5.88,9.48,5.88,22.2t-5.88,22.2a38.867,38.867,0,0,1-16.56,14.64A55.6,55.6,0,0,1,1062.1,293h-39.72Zm38.76,65.04q10.8,0,17.34-6.12t6.54-16.92q0-10.8-6.54-16.92t-17.34-6.12h-15v46.08h15Z" fill="#0080ff"/>
        <path id="Path_205" data-name="Path 205" d="M1188.94,274.64V293H1121.5V209h65.88v18.36h-42.36v14.16h37.32v17.76h-37.32v15.36h43.92Z" fill="#0080ff"/>
        <path id="Path_206" data-name="Path 206" d="M1277.98,293l-.24-44.52-21.6,36.24h-10.56l-21.48-35.04V293h-21.96V209h19.56l29.52,48.48,28.8-48.48h19.56l.24,84Z" fill="#0080ff"/>
        <path id="Path_207" data-name="Path 207" d="M1316.61,209h23.76v84h-23.76Z" fill="#0080ff"/>
        <path id="Path_208" data-name="Path 208" d="M1375.47,289.1a41.726,41.726,0,0,1-16.5-15.54,45.413,45.413,0,0,1,0-45.12,41.726,41.726,0,0,1,16.5-15.54,49.712,49.712,0,0,1,23.7-5.58,50.87,50.87,0,0,1,20.76,4.08,39.942,39.942,0,0,1,15.36,11.76l-15.12,13.68q-8.16-9.84-19.8-9.84a24.437,24.437,0,0,0-12.18,3,20.822,20.822,0,0,0-8.28,8.46,28.214,28.214,0,0,0,0,25.08,20.821,20.821,0,0,0,8.28,8.46,24.437,24.437,0,0,0,12.18,3q11.64,0,19.8-9.84l15.12,13.68a39.942,39.942,0,0,1-15.36,11.76,50.87,50.87,0,0,1-20.76,4.08A49.712,49.712,0,0,1,1375.47,289.1Z" fill="#0080ff"/>
      </g>
    </g>
  </g>
</svg>
